<svg xmlns="http://www.w3.org/2000/svg" width="157.639" height="51.225" viewBox="0 0 157.639 51.225">
  <g id="Group_43" data-name="Group 43" transform="translate(-183.315 -590.897)">
    <g id="Group_17" data-name="Group 17" transform="translate(183.315 590.897)">
      <g id="Group_1" data-name="Group 1" transform="translate(0 0)">
        <path id="Path_1" data-name="Path 1" d="M2055.084-841.214c-3.361-1.01-6.548-2.312-9.862-2.887-5.7-.989-11,.522-15.943,3.491-7.93,4.764-16.043,4.99-24.307.818a2.22,2.22,0,0,1-1.424-2.358c.093-2.335.027-4.676.027-7.093,2.024.852,3.829,1.793,5.741,2.383a23.708,23.708,0,0,0,20.017-2.632c7.865-4.73,15.932-4.982,24.172-.911a2.494,2.494,0,0,1,1.61,2.721C2055-845.442,2055.084-843.194,2055.084-841.214Z" transform="translate(-2003.543 861.179)"/>
        <path id="Path_2" data-name="Path 2" d="M2003.643-782.093c0-2.648-.058-5.31.056-7.964.019-.45.7-1.015,1.208-1.28,7.958-4.166,16-4.253,23.721.328,8.641,5.126,17.19,5.589,25.992.69a2.154,2.154,0,0,1,.513-.068c0,2.719.049,5.414-.052,8.1-.015.409-.649.924-1.114,1.169-8.361,4.418-16.6,4.131-24.716-.7q-11.94-7.1-24.285-.7c-.285.147-.563.308-.854.439C2004.03-782.033,2003.91-782.077,2003.643-782.093Z" transform="translate(-2003.6 821.255)"/>
        <path id="Path_3" data-name="Path 3" d="M2003.63-741.482c0-2.215-.071-4.345.056-6.464.028-.461.682-1.031,1.183-1.294,7.823-4.119,15.81-4.363,23.414.15,8.85,5.254,17.554,5.775,26.7.68v6.927Z" transform="translate(-2003.588 792.707)"/>
        <path id="Path_4" data-name="Path 4" d="M2055.028-877.921v6.865c-.448-.195-.82-.329-1.167-.512q-12.389-6.533-24.427.623c-8,4.758-16.131,5.089-24.456.885a2.2,2.2,0,0,1-1.431-2.356c.1-1.8.026-3.607.026-5.5Z" transform="translate(-2003.54 877.921)"/>
        <path id="Path_5" data-name="Path 5" d="M2130-806.914a4.105,4.105,0,0,1,4.049-4.087,4.158,4.158,0,0,1,4.188,4.134,4.206,4.206,0,0,1-4.076,4.11A4.139,4.139,0,0,1,2130-806.914Z" transform="translate(-2089.39 832.49)"/>
      </g>
    </g>
    <text id="Habitat" transform="translate(251.953 625.636)" font-size="26" font-family="Helvetica-Bold, Helvetica" font-weight="700"><tspan x="0" y="0">Habitat</tspan></text>
  </g>
</svg>
